<?xml version="1.0" encoding="utf-8"?>
<!-- Generator: Adobe Illustrator 28.0.0, SVG Export Plug-In . SVG Version: 6.00 Build 0)  -->
<svg version="1.1" id="Layer_4" xmlns="http://www.w3.org/2000/svg" xmlns:xlink="http://www.w3.org/1999/xlink" x="0px" y="0px"
	 viewBox="0 0 1024 768" style="enable-background:new 0 0 1024 768;" xml:space="preserve">
<style type="text/css">
	.st0{fill:none;stroke:#000000;stroke-width:5;stroke-miterlimit:10;}
	.st1{fill:none;stroke:#000000;stroke-width:5;stroke-linecap:round;stroke-miterlimit:10;}
	.st2{fill:none;stroke:#000000;stroke-width:6;stroke-miterlimit:10;}
</style>
<g>
	<path class="st0" d="M381.5,327.5c0,0,61-22.6,116,80.6c55.5-104.2,113.1-79.6,111-80.6"/>
	<path class="st1" d="M550.8,321.3c0,0-32.1-11.9-55.3,32.7c-23.2-44.6-55.3-32.7-55.3-32.7S491.3,283.5,550.8,321.3z"/>
	<path class="st1" d="M510.6,384.9"/>
	<path class="st1" d="M541.3,350.8c16.1,0.7,29,14,28.9,30.3c-0.1,16.7-13.6,30.2-30.3,30.2c-14.3,0-26.2-10-29.3-23.3"/>
	<path class="st1" d="M541.3,347.8"/>
	<path class="st1" d="M452.3,350.8c-15.6,1.3-27.8,14.5-27.6,30.4c0.1,16.7,13.8,30.1,30.5,30c14.2-0.1,26.1-10,29.2-23.3"/>
	<path class="st1" d="M452.3,347.8"/>
	<path class="st1" d="M565.3,331.9c13.4,13.6,21.5,31.3,21.5,50.6c0,26.5-33.4,54-62.4,61c-18,4.3-27.3,11-27.5,11
		c-0.2,0-9.2-5.9-27.5-10c-27-6-62.4-35.6-62.4-62c0-18.4,7.4-35.4,19.7-48.8"/>
	<path class="st1" d="M424.7,333.7"/>
	<path class="st1" d="M534.7,516"/>
	<path class="st1" d="M431.5,426.8"/>
	<path class="st1" d="M498,516.5"/>
	<path class="st1" d="M451.8,514.1l-8,14.7c-3.2,5.9-2,13.2,3,17.7l14.6,13.2"/>
	<path class="st1" d="M540.9,516.1l7.4,13.6c3.6,6.5,2.2,14.7-3.3,19.7l-13.7,12.3"/>
	<path class="st1" d="M424.7,418.7c0,0-86.2,16.8-86.2,86.8"/>
	<path class="st1" d="M569.5,418.7c0,0,86.2,16.8,86.2,86.8"/>
	<path class="st2" d="M442.3,383c0,0,18.3-27.5,34.7,0"/>
	<path class="st2" d="M550.1,383c0,0-18.3-27.5-34.7,0"/>
	<polyline class="st1" points="427.5,568.5 461.4,559.7 475.8,568.5 	"/>
	<polyline class="st1" points="564.8,570.5 530.8,561.7 516.5,570.5 	"/>
	<g>
		<path class="st1" d="M461.3,445.1l5.1,23.6c1.3,5.9,1.3,16.6,0.2,22.5l-5.3,23.5c0,0,0,0.1-0.1,0.3c24.4,1.6,36.3,8.7,36.6,8.7
			c0.2,0,11.2-6.9,32.4-9c0.9,0,2.1,0,2.1,0l-6.2-23.9c-1.9-7.2-1.9-14.5,0-21.7l6.2-23.9"/>
		<path class="st1" d="M458.9,513.8c-24.8-9-41.7-26.7-41.7-47.2c0-11.3,8.4-25.5,17.2-34.2"/>
		<path class="st1" d="M557.5,432.5c8.5,8.5,16.8,23.1,16.8,34.2c0,19.9-16,37.3-39.8,46.5"/>
	</g>
	<g>
		<path class="st1" d="M350.5,493.5c0,0-2.5,9-1.8,11"/>
		<path class="st1" d="M363.5,491.5c0,0-2.5,9-1.8,11"/>
		<path class="st1" d="M376.5,489.5c0,0-2.5,9-1.8,11"/>
	</g>
	<g>
		<path class="st1" d="M639.6,493.5c0,0,2.5,9,1.8,11"/>
		<path class="st1" d="M626.6,491.5c0,0,2.5,9,1.8,11"/>
		<path class="st1" d="M613.6,489.5c0,0,2.5,9,1.8,11"/>
	</g>
</g>
</svg>
