<?xml version="1.0" encoding="utf-8"?>
<!-- Generator: Adobe Illustrator 28.0.0, SVG Export Plug-In . SVG Version: 6.00 Build 0)  -->
<svg version="1.1" id="Layer_1" xmlns="http://www.w3.org/2000/svg" xmlns:xlink="http://www.w3.org/1999/xlink" x="0px" y="0px"
	 viewBox="0 0 1024 768" style="enable-background:new 0 0 1024 768;" xml:space="preserve">
<style type="text/css">
	.st0{fill:none;stroke:#000000;stroke-width:5;stroke-linecap:round;stroke-miterlimit:10;}
	.st1{fill:none;stroke:#000000;stroke-width:5;stroke-miterlimit:10;}
	.st2{stroke:#000000;stroke-miterlimit:10;}
</style>
<g>
	<path class="st0" d="M537.3,454.3l3.8,27.9l-15.1,4.9c-8.3,2.7-17,2.7-25.4,0.1l-15.8-5l3.8-27.9"/>
	<path class="st1" d="M397.2,264.7c0,0,61-22.6,116,80.6c55.5-104.2,113.1-79.6,111-80.6"/>
	<path class="st0" d="M566.5,258.5c0,0-32.1-11.9-55.3,32.7c-23.2-44.6-55.3-32.7-55.3-32.7S507,220.7,566.5,258.5z"/>
	<path class="st0" d="M526.2,322.2"/>
	<path class="st0" d="M557,288c16.1,0.7,29,14,28.9,30.3c-0.1,16.7-13.6,30.2-30.3,30.2c-14.3,0-26.2-10-29.3-23.3"/>
	<path class="st0" d="M557,285"/>
	<path class="st2" d="M548.9,291.5c10.9,0.1,19.6,8.9,19.5,19.8c-0.1,10.9-8.9,19.6-19.8,19.5c-9.5-0.1-17.4-6.9-19.2-15.8"/>
	<path class="st2" d="M477,291.6c-10.2,0.5-18.4,8.8-18.7,19.1c-0.3,10.9,8.3,19.9,19.1,20.2c9.5,0.2,17.6-6.3,19.7-15.2"/>
	<path class="st0" d="M468,288.1c-15.6,1.3-27.8,14.5-27.6,30.4c0.1,16.7,13.8,30.1,30.5,30c14.2-0.1,26.1-10,29.2-23.3"/>
	<path class="st0" d="M468,285"/>
	<path class="st0" d="M581,269.1c13.4,13.6,21.5,31.3,21.5,50.6c0,26.5-33.4,54-62.4,61c-18,4.3-27.3,11-27.5,11
		c-0.2,0-9.2-5.9-27.5-10c-27-6-62.4-35.6-62.4-62c0-18.4,7.4-35.4,19.7-48.8"/>
	<path class="st0" d="M440.4,271"/>
	<path class="st0" d="M550.4,492.2"/>
	<g>
		<path class="st0" d="M477.2,380l5.1,23.6c1.3,5.9,1.3,16.6,0.2,22.5l-5.3,23.5c0,0,0,0.1-0.1,0.3c24.4,1.6,36.3,8.7,36.6,8.7
			c0.2,0,11.2-6.9,32.4-9c0.9,0,2.1,0,2.1,0l-6.2-23.9c-1.9-7.2-1.9-14.5,0-21.7l6.2-23.9"/>
		<path class="st0" d="M474.8,448.7c-24.8-9-41.7-26.7-41.7-47.2c0-11.3,8.4-25.5,17.2-34.2"/>
		<path class="st0" d="M573.4,367.4c8.5,8.5,16.8,23.1,16.8,34.2c0,19.9-16,37.3-39.8,46.5"/>
	</g>
	<path class="st0" d="M447.1,364"/>
	<path class="st0" d="M513.7,492.7"/>
	<polyline class="st0" points="443.2,544.7 477.1,535.9 491.4,544.7 	"/>
	<polyline class="st0" points="580.4,546.7 546.5,537.9 532.2,546.7 	"/>
	<line class="st0" x1="474.8" y1="448.7" x2="477.1" y2="534.5"/>
	<line class="st0" x1="549.1" y1="449.7" x2="546.8" y2="535.5"/>
	<path class="st0" d="M577.9,364.9c0,0,52.2,66.5-15.7,83.5"/>
	<path class="st0" d="M446.4,364.9c0,0-52.2,66.5,15.7,83.5"/>
</g>
</svg>
